<?xml version="1.0" encoding="utf-8"?>
<!-- Designed by Vexels.com - 2017 All Rights Reserved - https://vexels.com/terms-and-conditions/  -->

<svg version="1.1" id="Layer_1" xmlns="http://www.w3.org/2000/svg" xmlns:xlink="http://www.w3.org/1999/xlink" x="0px" y="0px"
	 width="1200px" height="1200px" viewBox="0 0 1200 1200" enable-background="new 0 0 1200 1200" xml:space="preserve">
<g>
	<g>
		<path fill="#282727" d="M740.93,910.955h-80.156c-12.906,0-23.427,11.017-23.427,24.581v61.379
			c0,13.564,10.522,24.571,23.427,24.571h80.156c12.915,0,23.427-11.007,23.427-24.571v-61.379
			C764.357,921.972,753.845,910.955,740.93,910.955z"/>
		<path fill="#282727" d="M569.214,910.955h-80.176c-12.906,0-23.418,11.017-23.418,24.581v61.379
			c0,13.564,10.512,24.571,23.418,24.571h80.176c12.896,0,23.399-11.007,23.399-24.571v-61.379
			C592.612,921.972,582.11,910.955,569.214,910.955z"/>
		<path fill="#282727" d="M392.362,910.955h-80.146c-12.936,0-23.447,11.017-23.447,24.581v61.379
			c0,13.564,10.512,24.571,23.447,24.571h80.146c12.915,0,23.427-11.007,23.427-24.571v-61.379
			C415.79,921.972,405.277,910.955,392.362,910.955z"/>
		<path fill="#282727" d="M740.93,769.507h-80.156c-12.906,0-23.427,11.026-23.427,24.571v61.398
			c0,13.546,10.522,24.571,23.427,24.571h80.156c12.915,0,23.427-11.026,23.427-24.571v-61.398
			C764.357,780.533,753.845,769.507,740.93,769.507z"/>
		<path fill="#282727" d="M569.214,769.507h-80.176c-12.906,0-23.418,11.026-23.418,24.571v61.398
			c0,13.546,10.512,24.571,23.418,24.571h80.176c12.896,0,23.399-11.026,23.399-24.571v-61.398
			C592.612,780.533,582.11,769.507,569.214,769.507z"/>
		<path fill="#282727" d="M392.362,769.507h-80.146c-12.936,0-23.447,11.026-23.447,24.571v61.398
			c0,13.546,10.512,24.571,23.447,24.571h80.146c12.915,0,23.427-11.026,23.427-24.571v-61.398
			C415.79,780.533,405.277,769.507,392.362,769.507z"/>
		<path fill="#282727" d="M740.93,624.309h-80.156c-12.906,0-23.427,11.027-23.427,24.581v61.389
			c0,13.555,10.522,24.562,23.427,24.562h80.156c12.915,0,23.427-11.007,23.427-24.562V648.89
			C764.357,635.336,753.845,624.309,740.93,624.309z"/>
		<path fill="#282727" d="M569.214,624.309h-80.176c-12.906,0-23.418,11.027-23.418,24.581v61.389
			c0,13.555,10.512,24.562,23.418,24.562h80.176c12.896,0,23.399-11.007,23.399-24.562V648.89
			C592.612,635.336,582.11,624.309,569.214,624.309z"/>
		<path fill="#282727" d="M392.362,624.309h-80.146c-12.936,0-23.447,11.027-23.447,24.581v61.389
			c0,13.555,10.512,24.562,23.447,24.562h80.146c12.915,0,23.427-11.007,23.427-24.562V648.89
			C415.79,635.336,405.277,624.309,392.362,624.309z"/>
	</g>
	<g>
		<path fill="#282727" d="M944.484,50H255.506c-43.532,0-78.819,35.296-78.819,78.829v942.343c0,43.532,35.287,78.829,78.819,78.829
			h688.978c43.532,0,78.829-35.297,78.829-78.829V128.829C1023.313,85.296,988.016,50,944.484,50z M956.168,1063.071h-705.39
			V137.665h705.39V1063.071z"/>
		<path fill="#282727" d="M925.484,783.391c0-15.773-10.93-28.63-24.378-28.63h-83.383c-13.429,0-24.358,12.857-24.358,28.63v71.562
			c0,0.814,0.04,1.618,0.107,2.413c-0.068,0.804-0.107,1.618-0.107,2.432v67.512v4.03v67.522c0,15.793,10.929,28.63,24.358,28.63
			h83.383c13.448,0,24.378-12.837,24.378-28.63v-67.522v-4.03v-67.512c0-0.814-0.03-1.628-0.078-2.432
			c0.049-0.795,0.078-1.599,0.078-2.413V783.391z"/>
		<path fill="#282727" d="M901.107,619.232h-83.383c-13.429,0-24.358,12.257-24.358,27.304v68.229
			c0,15.057,10.929,27.304,24.358,27.304h83.383c13.448,0,24.378-12.247,24.378-27.304v-68.229
			C925.484,631.489,914.555,619.232,901.107,619.232z"/>
		<path fill="#282727" d="M910.302,172.535l-0.068-0.455H296.917c-9.466,0.329-10.813,7.606-10.968,10.473v334.713
			c0.029,0.881,0.077,1.831,0.049,2.877c-0.659,23.311,8.555,23.089,14.553,23.893h4.747c0.649-0.067,1.037-0.184,1.037-0.184
			l-0.02,0.184h603.589c4.544-0.581,14.534-2.684,14.989-14.582V182.679C922.277,170.917,910.302,172.535,910.302,172.535z"/>
		<rect x="824.109" y="668.782" fill="#FFFFFF" width="71.126" height="18.127"/>
		<g>
			<rect x="824.109" y="887.305" fill="#FFFFFF" width="71.126" height="18.128"/>
			<rect x="850.598" y="860.796" fill="#FFFFFF" width="18.147" height="71.155"/>
		</g>
		<g>
			<path fill="#FFFFFF" d="M589.085,491.154h-18.583V372.64c-4.477,4.273-10.368,8.536-17.615,12.799
				c-7.267,4.282-13.807,7.49-19.601,9.621v-17.973c10.416-4.903,19.504-10.832,27.284-17.779c7.78-6.967,13.303-13.71,16.539-20.25
				h11.975V491.154z"/>
			<path fill="#FFFFFF" d="M680.936,466.661v-41.527h-41.197v-17.363h41.197v-41.235h17.576v41.235h41.227v17.363h-41.227v41.527
				H680.936z"/>
			<path fill="#FFFFFF" d="M858.04,473.269v17.885H757.914c-0.136-4.485,0.601-8.787,2.171-12.915
				c2.567-6.831,6.636-13.555,12.237-20.153c5.638-6.608,13.738-14.262,24.357-22.943c16.452-13.496,27.575-24.192,33.359-32.089
				c5.804-7.878,8.691-15.338,8.691-22.353c0-7.373-2.645-13.593-7.925-18.651c-5.251-5.057-12.111-7.596-20.599-7.596
				c-8.952,0-16.122,2.684-21.49,8.051c-5.367,5.368-8.1,12.818-8.167,22.323l-19.117-1.966c1.318-14.252,6.24-25.133,14.785-32.603
				c8.526-7.461,19.999-11.2,34.396-11.2c14.543,0,26.044,4.02,34.503,12.081c8.487,8.061,12.721,18.041,12.721,29.968
				c0,6.066-1.23,12.015-3.711,17.866c-2.49,5.853-6.589,12.034-12.353,18.506c-5.745,6.472-15.309,15.346-28.68,26.654
				c-11.142,9.369-18.312,15.716-21.49,19.068c-3.158,3.343-5.794,6.695-7.848,10.066H858.04z"/>
		</g>
	</g>
</g>
</svg>
